PathFileType	4	(X/Y/Z)	Kaydara	
DataRate	CameraRate	NumFrames	NumMarkers	Units	OrigDataRate	OrigDataStartFrame	OrigNumFrames	
120.00	120.00	4	72	mm	120.00	235	268	
Frame#	Time	Hips			RightUpLeg			RightLeg			RightFoot			RightFoot_End			LeftUpLeg			LeftLeg			LeftFoot			LeftFoot_End			Spine			Spine1			Spine2			Spine3			Neck			Head			Head_End			RightShoulder			RightArm			RightForeArm			RightHand			RightHandThumb1			RightHandThumb2			RightHandThumb3			RightHandThumb3_End			RightInHandIndex			RightHandIndex1			RightHandIndex2			RightHandIndex3			RightHandIndex3_End			RightInHandMiddle			RightHandMiddle1			RightHandMiddle2			RightHandMiddle3			RightHandMiddle3_End			RightInHandRing			RightHandRing1			RightHandRing2			RightHandRing3			RightHandRing3_End			RightInHandPinky			RightHandPinky1			RightHandPinky2			RightHandPinky3			RightHandPinky3_End			LeftShoulder			LeftArm			LeftForeArm			LeftHand			LeftHandThumb1			LeftHandThumb2			LeftHandThumb3			LeftHandThumb3_End			LeftInHandIndex			LeftHandIndex1			LeftHandIndex2			LeftHandIndex3			LeftHandIndex3_End			LeftInHandMiddle			LeftHandMiddle1			LeftHandMiddle2			LeftHandMiddle3			LeftHandMiddle3_End			LeftInHandRing			LeftHandRing1			LeftHandRing2			LeftHandRing3			LeftHandRing3_End			LeftInHandPinky			LeftHandPinky1			LeftHandPinky2			LeftHandPinky3			LeftHandPinky3_End			
		X1	Y1	Z1	X2	Y2	Z2	X3	Y3	Z3	X4	Y4	Z4	X5	Y5	Z5	X6	Y6	Z6	X7	Y7	Z7	X8	Y8	Z8	X9	Y9	Z9	X10	Y10	Z10	X11	Y11	Z11	X12	Y12	Z12	X13	Y13	Z13	X14	Y14	Z14	X15	Y15	Z15	X16	Y16	Z16	X17	Y17	Z17	X18	Y18	Z18	X19	Y19	Z19	X20	Y20	Z20	X21	Y21	Z21	X22	Y22	Z22	X23	Y23	Z23	X24	Y24	Z24	X25	Y25	Z25	X26	Y26	Z26	X27	Y27	Z27	X28	Y28	Z28	X29	Y29	Z29	X30	Y30	Z30	X31	Y31	Z31	X32	Y32	Z32	X33	Y33	Z33	X34	Y34	Z34	X35	Y35	Z35	X36	Y36	Z36	X37	Y37	Z37	X38	Y38	Z38	X39	Y39	Z39	X40	Y40	Z40	X41	Y41	Z41	X42	Y42	Z42	X43	Y43	Z43	X44	Y44	Z44	X45	Y45	Z45	X46	Y46	Z46	X47	Y47	Z47	X48	Y48	Z48	X49	Y49	Z49	X50	Y50	Z50	X51	Y51	Z51	X52	Y52	Z52	X53	Y53	Z53	X54	Y54	Z54	X55	Y55	Z55	X56	Y56	Z56	X57	Y57	Z57	X58	Y58	Z58	X59	Y59	Z59	X60	Y60	Z60	X61	Y61	Z61	X62	Y62	Z62	X63	Y63	Z63	X64	Y64	Z64	X65	Y65	Z65	X66	Y66	Z66	X67	Y67	Z67	X68	Y68	Z68	X69	Y69	Z69	X70	Y70	Z70	X71	Y71	Z71	X72	Y72	Z72	

235	1.95	6446.805	859.65103	-201.189	6444.245807055019	826.9976615174344	-248.3037642373137	6409.27692444301	415.92413354540247	-273.8276864049934	6512.252852556115	92.77065281978145	-486.9231812451544	6550.381273927448	-27.220243463797342	-373.5059760424229	6454.731501971324	863.1661423583383	-140.73805857311163	6330.630966061725	474.72807053345446	-48.72511975563291	6241.355995929886	88.7122539356354	79.00564986540752	6309.851126906032	19.35429901501321	240.38203883551685	6423.435972649693	988.9561047552644	-256.5802148356323	6381.198953017547	1068.1208466510254	-293.78231517939093	6332.239525886306	1148.3368114846096	-331.4112603718825	6277.211769081516	1220.0598280604659	-365.93932720004824	6217.045768811893	1296.1362501077072	-397.8427143860321	6171.578825052742	1370.601529137691	-364.515841391391	6156.307697363034	1472.240757366207	-246.00707883432432	6230.482519673126	1263.5692207796835	-395.9627949441117	6209.301596470304	1227.019320870693	-409.03295925747204	6251.70114584609	1124.7240524436024	-277.8925232488656	6208.809940264279	1108.7002675337214	-243.0918804534532	6208.918831163581	1130.8951831340655	-238.2802411189039	6211.507401347511	1143.476893259774	-234.49990490927573	6213.241795261817	1148.9674763357111	-231.35502413643587	6214.629266705027	1150.74620884965	-228.29505467704465	6208.407292903988	1121.4207044392858	-235.6248541060573	6208.737296655608	1127.7922162252667	-223.94863865498792	6210.445160313872	1131.0725016298832	-217.8402974703035	6212.348350493812	1134.6489829592103	-216.47327314721784	6214.491180121599	1138.646076069945	-216.98125738339982	6208.280339710684	1112.2466360400454	-234.73388318755306	6208.533124799685	1113.4992890296967	-222.86275389281008	6210.380767728673	1115.8461252423522	-216.1201706469077	6212.6692337122695	1119.5695330677872	-214.43388435139173	6215.010151435855	1123.6555318214168	-214.9717127561844	6208.166835072732	1105.5941645474652	-234.37621713827502	6208.249821806576	1100.9173788242972	-223.3503135567884	6209.843678104	1101.7011587141944	-217.413577470997	6212.042294639232	1104.6226337635283	-215.75522959259774	6214.239183222226	1108.146985191728	-216.24586048327484	6208.147696466544	1097.8084306400333	-234.50829353657275	6208.1604749987455	1088.6928980846205	-224.3852939582004	6209.410697910069	1087.3725358006543	-219.5862383275638	6211.001762481446	1088.5611663628772	-218.35479772433905	6212.940589420968	1091.1408611612483	-218.77685351593715	6244.0585237844925	1279.8413842407688	-379.77543105460285	6274.684621264107	1292.9581436937744	-347.1902469417299	6287.436710679588	1170.2622958461957	-302.3565496945606	6247.110315783533	1113.2408560731412	-266.06891626713724	6249.167321276664	1132.3142694386956	-258.2437201160278	6255.1486258144305	1130.722246493224	-254.4278862597368	6260.2964635411845	1126.685418858824	-252.80824914161582	6265.428460543091	1120.815143675275	-252.34575857965066	6252.8660789696005	1124.9828419161336	-261.06442083448974	6265.357854827118	1125.9375702441992	-258.05007946610385	6274.114024235839	1119.0425335318512	-256.9205682762172	6277.822763502196	1112.9176535381666	-256.13838109367015	6279.722195779301	1106.6081445081345	-255.43702056135942	6255.106420772661	1116.6262292405477	-264.0377551189555	6268.50230443718	1113.0395043054093	-262.70566016389176	6278.312196270278	1104.4004745453362	-261.87645020748573	6282.909094889507	1096.475889162659	-261.12630772339116	6285.046940808412	1089.311984029832	-260.45297773786433	6256.378715876735	1110.7557274889311	-266.211689935174	6269.512737835343	1102.6144130956711	-266.89432904703665	6278.302680540509	1093.9497924603058	-266.5859527322134	6282.863994580029	1085.7032473369943	-266.0824310353866	6284.9344020023445	1078.6817873838718	-265.5536087980878	6257.418083484706	1103.5066146177362	-268.8333276922635	6270.137069872321	1091.7646755496785	-271.06245867573637	6277.492202177855	1083.091012871006	-271.4590283885841	6280.972332037211	1076.2364994075192	-271.40304313891954	6282.894479424978	1069.533515426057	-271.11374136498284
236	1.958	6446.805	859.65103	-201.189	6443.137413980933	826.9492736991792	-247.838426419891	6409.642370735917	415.7678860267944	-273.4694278009376	6511.93696487884	93.67220026296722	-488.2704501956558	6551.2356352910265	-26.91428885787407	-375.841768804661	6455.816967536413	863.2138897336011	-141.19488830982135	6331.517664436867	474.9043318380419	-48.97245186296342	6241.597009866124	89.31691158917404	79.30244334859071	6310.146100546335	19.691550384879378	240.496974518839	6423.604213728374	988.9626963761976	-256.6445569150105	6381.481778069162	1068.2678620333675	-293.6866153614822	6332.659501436962	1148.669055235364	-331.1108115480221	6277.786265294536	1220.6366387304627	-365.37449468756347	6217.805104992665	1296.9832693402334	-396.9651355795299	6172.710216485211	1371.6855945267203	-363.75868551633425	6157.699424324239	1473.715651817606	-245.60554566931216	6230.853295511813	1264.3244425015628	-394.7837313543762	6208.508832189973	1228.1466787426534	-405.9576645824185	6252.924664500391	1129.0109506825006	-272.79993638520546	6209.640020407884	1116.9580205707207	-234.7205126220613	6209.504242027495	1139.7233906425777	-229.43645317674785	6212.291497734852	1152.681802288501	-225.11064089227958	6214.1932850044595	1158.4311704295997	-221.59136095228857	6215.745138328338	1160.422603890178	-218.22395097067806	6209.0348226811	1130.3175346582657	-226.75815470715972	6209.333998281609	1137.5269298065753	-214.3416509071019	6211.231363983901	1141.2353407425148	-207.71374896329763	6213.346906960851	1144.9308053950738	-206.0742902721127	6215.729270792325	1148.9271019744635	-206.39089596915514	6208.997922939485	1121.097282348838	-225.90761995650655	6209.269289002837	1123.1422447580233	-213.33630887646547	6211.335962123033	1125.9472459025285	-206.03451273507338	6213.88650072394	1129.809880944138	-204.02325464696824	6216.492369186665	1133.8929070277134	-204.3534839069003	6208.9468693472845	1114.3925174150238	-225.59734611271585	6209.094990561983	1110.385428047054	-213.98488389635983	6210.892263332779	1111.5580742892485	-207.56974210467348	6213.350312780247	1114.6082835098066	-205.60271603088736	6215.799470046726	1118.1272042541075	-205.90041808927128	6209.0160297461025	1106.508712422547	-225.806018928467	6209.136403827871	1097.952992799984	-215.19178894558388	6210.568760792963	1096.9247497093418	-210.0262530417161	6212.358366648377	1098.1979576919532	-208.57769571768907	6214.526020436185	1100.767476991213	-208.8334719494892	6245.060108759973	1280.5640876054147	-379.44643356137937	6276.875182253579	1294.1747569381284	-348.71603691655133	6290.660454122562	1173.6364988224732	-300.36223765809035	6247.005478543766	1120.1449552074753	-261.75583539594436	6249.479989948969	1139.6135376237546	-253.39860276113274	6255.690125628127	1138.3499054023534	-248.89643966833097	6261.004915290684	1134.5611785328667	-246.82744876675133	6266.282589155599	1128.914338478608	-246.01482316890343	6253.273972688727	1132.408981539812	-256.2894057647596	6266.448891842384	1134.1424160860206	-252.60428281522977	6275.521829985556	1127.6769086193333	-250.9205266153701	6279.281235739726	1121.6811491923008	-249.77451385205563	6281.123941963788	1115.3854834737904	-248.7590290774253	6255.503651166432	1124.072714669706	-259.3597343653909	6269.560129638735	1121.2565534114954	-257.4258684605454	6279.711858191256	1113.0862439181194	-256.0067317238105	6284.368050042512	1105.3174461477956	-254.82478016575146	6286.442935605827	1098.1686920770949	-253.81120899517703	6256.752776169119	1118.1981387499422	-261.6202544194883	6270.463965253422	1110.7480295681898	-261.8415032524002	6279.546887731819	1102.4907359389913	-261.0350758382108	6284.162756993202	1094.3938166780426	-260.1236065775661	6286.172715641496	1087.3862973875182	-259.27893142129494	6257.731496878244	1110.9105613235843	-264.3537031357458	6270.9487170941675	1099.783904323471	-266.2315232484935	6278.528178331667	1091.4314993118799	-266.2564437533278	6282.043128910906	1084.6837462202982	-265.916043685095	6283.908867037927	1077.991743161667	-265.3545120416987
237	1.967	6446.805	859.65103	-201.189	6442.073507556755	826.9164000204839	-247.3618339577739	6410.003555224013	415.6377203179923	-273.1072889108839	6511.605975401889	94.55747342143322	-489.5275543862115	6552.013370043388	-26.602521289004436	-378.0632859334661	6456.859864762085	863.2466477728213	-141.66276944296453	6332.36145378078	475.06643586735373	-49.22811926638462	6241.815919504611	89.91056190444482	79.61497348658915	6310.413813436086	20.032532588883285	240.6353008611906	6423.7613826941	988.9660213715094	-256.7105241419597	6381.750624622152	1068.4075549781444	-293.5958806865618	6333.062479619929	1148.9886203392148	-330.81946277012014	6278.341911938484	1221.1948609014619	-364.82401326060346	6218.544297146826	1297.8056942073106	-396.1088228560108	6173.820926347864	1372.7443538807902	-363.0232813114054	6159.064340038408	1475.1567765375496	-245.22128061129305	6231.219773888183	1265.0679244880969	-393.62716308601836	6207.7767903019	1229.3016949269463	-402.9330785873686	6254.270109397607	1133.268085947268	-267.86796310347984	6210.714561092657	1125.2063919955679	-226.63491288380064	6210.351761595718	1148.5462819462537	-220.8890103669211	6213.342980859509	1161.8854997928058	-216.03996801643282	6215.415523688104	1167.8966756720984	-212.16257272412057	6217.134293691144	1170.1034704005722	-208.50197460604466	6209.9264348046845	1139.2101394223682	-218.19089028014585	6210.217206149744	1147.2653473282444	-205.06103423996635	6212.311784019348	1151.4067116088092	-197.93615484564674	6214.638655052764	1155.2230331203114	-196.03767368825586	6217.255780405512	1159.2193230767402	-196.17357817896885	6209.977580333894	1129.9438409378727	-217.38218989156678	6210.288314989545	1132.7889215583293	-204.13772488364472	6212.582084008261	1136.057347332003	-196.30146063902706	6215.393292107596	1140.0614659008986	-193.98146062373087	6218.258808034948	1144.1423816541226	-194.1157974501467	6209.98706936032	1123.186687185901	-217.1195802691807	6210.217539856227	1119.8562378789516	-204.94493469731938	6212.2248702752495	1121.4223138386028	-198.0730167361985	6214.940792658868	1124.6034224621292	-195.81300032331384	6217.637134303589	1128.117718049534	-195.92879637654812	6210.141029051952	1115.2043953624818	-217.40460668808376	6210.382914759599	1107.2146360648455	-206.32126673580942	6212.002041331303	1106.4821032161542	-200.80656114629457	6213.988720491805	1107.8414374098325	-199.15232527309206	6216.380507269067	1110.4014772032658	-199.25158372065286	6246.025756475385	1281.253945101608	-379.1307834050592	6278.971516932978	1295.3047937378165	-350.24718085691103	6293.852227157673	1176.948075585733	-298.5133874852678	6247.0270258507335	1127.03841497854	-257.6036759111623	6249.919163287035	1146.9110342664248	-248.73450358525645	6256.365380670037	1145.984576251463	-243.56754775433245	6261.850846536968	1142.4501304932137	-241.06397987598555	6267.276168507248	1137.0319322037224	-239.91334878721142	6253.802427537894	1139.8345844549342	-251.69659989108635	6267.651893405826	1142.3615626897295	-247.37180204838262	6277.042052919915	1136.3348763410022	-245.15469942239932	6280.857685166394	1130.4722438358338	-243.65520923393777	6282.65182793265	1124.1925432984863	-242.33238159609633	6256.018443915426	1131.5182706225874	-254.86220287365018	6270.725508478115	1129.4869329091687	-252.35597644744638	6281.219207904533	1121.7953817198963	-250.3693886664477	6285.9412283084275	1114.1871564920411	-248.76795492309907	6287.9620009602295	1107.0558515705827	-247.42148591888275	6257.242423844893	1125.638978276442	-257.2073115823099	6271.519874305924	1118.892337027225	-256.99183069260926	6280.895542386734	1111.0509934877487	-255.70655958720897	6285.5720842623	1103.1082485593215	-254.39882987540338	6287.529824617912	1096.116798972338	-253.24511012775753	6258.1590668821345	1118.3116569987708	-260.0492716437302	6271.863379340409	1107.810791985737	-261.5964166719945	6279.666482360616	1099.7862993653812	-261.26436412536526	6283.220474020001	1093.1485032304254	-260.6477331151043	6285.036954659991	1086.4692973901538	-259.81980656698363
238	1.975	6446.805	859.65103	-201.189	6441.055920989193	826.8990354682714	-246.87494015206474	6410.359834931636	415.5337396872178	-272.7417196783635	6511.261231582337	95.42489281138711	-490.692123383217	6552.714000298095	-26.285473534951283	-380.1661804677896	6457.858391307275	863.2644097263914	-142.14078742668	6333.160928931094	475.2141262202543	-49.49160313154267	6242.0124472386	90.49216298792561	79.94268291804352	6310.653981281303	20.376771714665495	240.7967724377957	6423.907231853017	988.9661300616985	-256.7778910512239	6382.005094340558	1068.5397909175995	-293.51012158839103	6333.447871415096	1149.295103886809	-330.5375464905638	6278.877927451959	1221.7337605585028	-364.28865995705684	6219.262308787512	1298.602403081057	-395.27508590383337	6174.909199593601	1373.7762283493316	-362.3107856379962	6160.40009988895	1476.5619071831277	-244.85487643791228	6231.581560557549	1265.7986314207908	-392.4949432432134	6207.107029311711	1230.4825319052984	-399.9643900968654	6255.735329656026	1137.4879535602508	-263.10540326117456	6212.032310663673	1133.4308722756687	-218.85017599804482	6211.4605652463515	1157.3483579127642	-212.65380710004376	6214.660706209054	1171.071963343772	-207.30474961279106	6216.907101149298	1177.3476085962673	-203.0862036829742	6218.795064486079	1179.7721268289274	-199.147242706804	6211.081259091539	1148.0828762755496	-209.93905009133448	6211.386175303153	1156.990387540165	-196.12417010202734	6213.685394201279	1161.5688771433654	-188.525868244562	6216.222216682692	1165.5078198078675	-186.38226915030467	6219.068920236084	1169.5050039717594	-186.3484823286014	6211.218303216436	1138.7707450572439	-209.17355064894429	6211.589241417631	1142.422390175379	-195.28430036435674	6214.11784598906	1146.158799716421	-186.93936442052032	6217.1878867665755	1150.3065335685744	-184.32744251298885	6220.307293105957	1154.3863262204543	-184.2779554735784	6211.286328877838	1131.961193540713	-208.9588196932581	6211.616331388598	1129.313170917092	-196.24751853179768	6213.84005676496	1131.2766469595026	-188.94135953511218	6216.811863319624	1134.5907094271695	-186.40460406772058	6219.749873419353	1138.101307244443	-186.349854412655	6211.521444626198	1123.8801701510713	-209.31984794439563	6211.898651878419	1116.461549607416	-197.7905097570179	6213.70890970163	1116.0278757446988	-191.94464806265952	6215.890866633353	1117.4748198734071	-190.0965720518291	6218.501701683756	1120.0261931632385	-190.04936726031903	6246.954005937529	1281.9100705102985	-378.8288266660038	6280.970061356335	1296.3466956342893	-351.78068634028364	6297.006284797655	1180.1916216383015	-296.81327032440873	6247.175327131744	1133.9093337020595	-253.62010225823673	6250.48452713939	1154.1941001279458	-244.26002905694997	6257.173626899423	1153.6128809466086	-238.4510798354513	6262.833149025219	1150.3383619013362	-235.52854812026754	6268.407776943403	1145.1535370181812	-234.0527014164545	6254.450908291598	1147.2467694885975	-247.29451039200248	6268.9650330082995	1150.5806355621346	-242.3624073571597	6278.672221909782	1145.0011836163258	-239.6339022832222	6282.549504685091	1139.2753700148398	-237.79196123310558	6284.3033126587625	1133.0136527074835	-236.16915284439088	6256.650236737559	1138.9499826984436	-250.5535145082875	6271.996604486887	1137.71625383936	-247.50548691893454	6282.831706468544	1130.5125409380187	-244.97504044448752	6287.625927155196	1123.0692942202868	-242.96725830504982	6289.601506851099	1115.957623090949	-241.29586461968466	6257.847107420177	1133.0653441482832	-252.98107302086004	6272.678772068795	1127.0331165941052	-252.35442410278864	6282.346342300962	1119.6155142071134	-250.6104635168973	6287.089517979763	1111.8311281475476	-248.91892474351172	6289.003339458254	1104.857771400105	-247.46355424924536	6258.700315799905	1125.6970743169593	-255.92805780751854	6272.879566871118	1115.8313415897542	-257.1658694011478	6280.905146313195	1108.1407603077798	-256.49223295290585	6284.502290159091	1101.6158573260598	-255.6080904931001	6286.276728844482	1094.9511741010833	-254.5201101025841
